<svg xmlns="http://www.w3.org/2000/svg" viewBox="0 0 100 100" fill="none">
  <path d="M6.017 4.313l55.333 -4.087c6.797 -0.583 8.543 -0.19 12.817 2.917l17.663 12.443c2.913 2.14 3.883 2.723 3.883 5.053v68.243c0 4.277 -1.553 6.807 -6.99 7.193L24.467 99.967c-4.08 0.193 -6.023 -0.39 -8.16 -3.113L3.3 79.94c-2.333 -3.113 -3.3 -5.443 -3.3 -8.167V11.113c0 -3.497 1.553 -6.413 6.017 -6.8z" fill="#ffffff"/>
  <path d="M6.017 4.313l55.333 -4.087c6.797 -0.583 8.543 -0.19 12.817 2.917l17.663 12.443c2.913 2.14 3.883 2.723 3.883 5.053v68.243c0 4.277 -1.553 6.807 -6.99 7.193L24.467 99.967c-4.08 0.193 -6.023 -0.39 -8.16 -3.113L3.3 79.94c-2.333 -3.113 -3.3 -5.443 -3.3 -8.167V11.113c0 -3.497 1.553 -6.413 6.017 -6.8z" fill="none" stroke="#000000" stroke-width="2"/>
  <path fill-rule="evenodd" clip-rule="evenodd" d="M61.35 0.227l-55.333 4.087C1.553 4.7 0 7.617 0 11.113v60.66c0 2.723 0.967 5.053 3.3 8.167l13.007 16.913c2.137 2.723 4.08 3.307 8.16 3.113l64.257 -3.89c5.433 -0.387 6.99 -2.917 6.99 -7.193V20.64c0 -2.21 -0.873 -2.847 -3.443 -4.733L74.167 3.143c-4.273 -3.107 -6.02 -3.5 -12.817 -2.917zM25.92 19.523c-5.247 0.353 -6.437 0.433 -9.417 -1.99L8.927 11.507c-1.557 -1.36 -2.14 -1.553 -2.14 -2.917 0 -1.75 0.777 -2.53 3.497 -2.723L63.943 1.97c4.08 -0.387 6.223 0.58 7.777 1.747l9.42 6.803c0.39 0.197 1.36 1.36 1.36 1.94 0 1.553 -1.553 1.747 -3.883 1.94l-52.697 3.177v1.947zM21.313 90.397V33.52c0 -2.527 0.777 -3.693 3.103 -3.887l56.377 -3.303c2.14 -0.193 3.107 1.167 3.107 3.693v56.49c0 2.527 -0.39 4.667 -3.497 4.86l-53.853 3.107c-3.107 0.193 -4.237 -0.967 -4.237 -4.083zm53.46 -53.19c0.387 1.75 0 3.5 -1.75 3.7l-2.527 0.387v41.587c-2.14 1.163 -4.277 1.75 -5.833 1.75 -2.723 0 -3.5 -0.777 -5.443 -3.107L41.587 52.44v26.557l5.443 1.167s0 3.497 -4.86 3.497l-13.397 0.777c-0.387 -0.777 0 -2.723 1.357 -3.11l3.497 -0.967V43.38l-4.86 -0.39c-0.387 -1.75 0.58 -4.277 3.3 -4.473l14.367 -0.967 20.017 30.63V42.993l-4.467 -0.58c-0.39 -2.143 1.163 -3.5 3.103 -3.69l13.583 -0.777z" fill="#000000"/>
</svg>
